<mxfile host="Electron" modified="2023-12-27T08:51:56.176Z" agent="Mozilla/5.0 (Windows NT 10.0; Win64; x64) AppleWebKit/537.36 (KHTML, like Gecko) draw.io/21.2.8 Chrome/112.0.5615.165 Electron/24.2.0 Safari/537.36" etag="mOsumqxoSJijQoKuFbqQ" version="21.2.8" type="device">
  <diagram name="Page-1" id="95robYiWyXmsKbzFR-SE">
    <mxGraphModel dx="890" dy="801" grid="1" gridSize="10" guides="1" tooltips="1" connect="1" arrows="1" fold="1" page="1" pageScale="1" pageWidth="827" pageHeight="1169" math="0" shadow="0">
      <root>
        <mxCell id="0" />
        <mxCell id="1" parent="0" />
        <mxCell id="J-dCkdMY2vijxnSTDAi3-1" value="&lt;font style=&quot;font-size: 16px;&quot; face=&quot;Verdana&quot;&gt;&lt;b&gt;n&lt;/b&gt;&lt;/font&gt;" style="rounded=0;whiteSpace=wrap;html=1;" vertex="1" parent="1">
          <mxGeometry x="120" y="400" width="50" height="60" as="geometry" />
        </mxCell>
        <mxCell id="J-dCkdMY2vijxnSTDAi3-2" value="&lt;font face=&quot;Verdana&quot; style=&quot;font-size: 16px;&quot;&gt;&lt;b&gt;p&lt;sub&gt;0&lt;/sub&gt;&lt;/b&gt;&lt;/font&gt;" style="rounded=0;whiteSpace=wrap;html=1;" vertex="1" parent="1">
          <mxGeometry x="170" y="400" width="50" height="60" as="geometry" />
        </mxCell>
        <mxCell id="J-dCkdMY2vijxnSTDAi3-3" value="&lt;font face=&quot;Verdana&quot;&gt;&lt;span style=&quot;font-size: 16px;&quot;&gt;&lt;b&gt;k&lt;sub&gt;1&lt;/sub&gt;&lt;/b&gt;&lt;/span&gt;&lt;/font&gt;" style="rounded=0;whiteSpace=wrap;html=1;" vertex="1" parent="1">
          <mxGeometry x="220" y="400" width="50" height="60" as="geometry" />
        </mxCell>
        <mxCell id="J-dCkdMY2vijxnSTDAi3-4" value="&lt;font face=&quot;Verdana&quot;&gt;&lt;span style=&quot;font-size: 16px;&quot;&gt;&lt;b&gt;p&lt;sub&gt;1&lt;/sub&gt;&lt;/b&gt;&lt;/span&gt;&lt;/font&gt;" style="rounded=0;whiteSpace=wrap;html=1;" vertex="1" parent="1">
          <mxGeometry x="270" y="400" width="50" height="60" as="geometry" />
        </mxCell>
        <mxCell id="J-dCkdMY2vijxnSTDAi3-5" value="&lt;font face=&quot;Verdana&quot;&gt;&lt;b style=&quot;&quot;&gt;&lt;span style=&quot;font-size: 16px;&quot;&gt;k&lt;/span&gt;&lt;span style=&quot;font-size: 13.3333px;&quot;&gt;&lt;sub&gt;2&lt;/sub&gt;&lt;/span&gt;&lt;/b&gt;&lt;/font&gt;" style="rounded=0;whiteSpace=wrap;html=1;" vertex="1" parent="1">
          <mxGeometry x="320" y="400" width="50" height="60" as="geometry" />
        </mxCell>
        <mxCell id="J-dCkdMY2vijxnSTDAi3-6" value="&lt;font face=&quot;Verdana&quot;&gt;&lt;span style=&quot;font-size: 16px;&quot;&gt;...&lt;/span&gt;&lt;/font&gt;" style="rounded=0;whiteSpace=wrap;html=1;" vertex="1" parent="1">
          <mxGeometry x="370" y="400" width="50" height="60" as="geometry" />
        </mxCell>
        <mxCell id="J-dCkdMY2vijxnSTDAi3-7" value="&lt;font face=&quot;Verdana&quot;&gt;&lt;b style=&quot;&quot;&gt;&lt;span style=&quot;font-size: 16px;&quot;&gt;p&lt;/span&gt;&lt;span style=&quot;font-size: 13.3333px;&quot;&gt;&lt;sub&gt;n&lt;/sub&gt;&lt;/span&gt;&lt;/b&gt;&lt;/font&gt;" style="rounded=0;whiteSpace=wrap;html=1;" vertex="1" parent="1">
          <mxGeometry x="420" y="400" width="50" height="60" as="geometry" />
        </mxCell>
      </root>
    </mxGraphModel>
  </diagram>
</mxfile>
